PathFileType	4	(X/Y/Z)	D:\TRACE\v60_Jaco2_6-2-23\v60_baseline_3-platform.trc
DataRate	CameraRate	NumFrames	NumMarkers	Units	OrigDataRate	OrigDataStartFrame	OrigNumFrames
100.00	100.00	      50	5	mm	100.00	1	      6500
Frame#	Time	Left_Front			Right_Front			Left_Aft			Right_Aft			Post			
		X1	Y1	Z1	X2	Y2	Z2	X3	Y3	Z3	X4	Y4	Z4	X5	Y5	Z5	

1	0.000	-800.53723	8.89283	-638.80151	769.37488	10.14463	-644.40125	-708.68384	8.01293	496.11398	733.54553	6.99978	505.88483	-14.12648	1308.19092	-961.71777	
2	0.010	-800.53607	8.82481	-638.81464	769.40137	10.13897	-644.39252	-708.67969	7.99391	496.11798	733.48199	6.95832	505.88300	-14.09697	1308.20166	-961.73883	
3	0.020	-800.58099	8.85765	-638.81030	769.41809	10.14199	-644.36267	-708.68097	7.98677	496.13602	733.44220	6.95310	505.90451	-14.08004	1308.15625	-961.72473	
4	0.030	-800.56012	8.81574	-638.79468	769.36102	10.14543	-644.42194	-708.66022	7.95895	496.17145	733.45441	6.95146	505.88177	-14.12431	1308.16687	-961.76959	
5	0.040	-800.58856	8.77766	-638.82013	769.29022	10.18521	-644.40704	-708.65869	7.91585	496.15356	733.43414	6.96515	505.88138	-14.11966	1308.16492	-961.68304	
6	0.050	-800.52240	8.89379	-638.77747	769.42273	10.17266	-644.36749	-708.68524	8.02126	496.13077	733.46783	6.97094	505.86032	-14.07080	1308.15515	-961.72656	
7	0.060	-800.51825	8.86976	-638.85236	769.44501	10.18235	-644.36334	-708.67096	7.96985	496.12659	733.51843	6.98711	505.88098	-14.13787	1308.19592	-961.73486	
8	0.070	-800.55396	8.91455	-638.75848	769.43018	10.16149	-644.38721	-708.66034	7.96311	496.18567	733.47937	6.96642	505.89844	-14.12841	1308.15747	-961.77136	
9	0.080	-800.60095	8.84033	-638.75653	769.38306	10.13042	-644.38544	-708.70331	8.01416	496.11481	733.44434	6.96101	505.86191	-14.19175	1308.14771	-961.73315	
10	0.090	-800.59320	8.82344	-638.79541	769.36621	10.15717	-644.39642	-708.68903	7.97221	496.10367	733.42255	6.92310	505.88293	-14.11159	1308.14673	-961.75635	
11	0.100	-800.57220	8.86859	-638.82343	769.34290	10.15900	-644.40906	-708.71399	8.04082	496.10742	733.50342	6.98863	505.87769	-14.10495	1308.17651	-961.73163	
12	0.110	-800.54559	8.84249	-638.79779	769.41406	10.17619	-644.38770	-708.74054	8.02039	496.06079	733.50061	6.97179	505.87692	-14.07262	1308.23596	-961.75555	
13	0.120	-800.56390	8.93752	-638.73492	769.41034	10.19178	-644.41095	-708.70099	8.03153	496.08676	733.48541	6.97952	505.88586	-14.08882	1308.21045	-961.80548	
14	0.130	-800.52338	8.86977	-638.81757	769.42822	10.16547	-644.37860	-708.73163	8.04406	496.05704	733.49933	6.94444	505.85941	-14.05479	1308.20178	-961.78271	
15	0.140	-800.58899	8.80626	-638.81494	769.41241	10.17779	-644.35907	-708.71814	8.00795	496.08759	733.49103	6.99717	505.88101	-14.07757	1308.15015	-961.76563	
16	0.150	-800.60510	8.90926	-638.80945	769.41559	10.15699	-644.39563	-708.70972	7.98531	496.09750	733.40424	6.90855	505.86194	-14.11365	1308.16858	-961.72675	
17	0.160	-800.54309	8.93787	-638.80414	769.36475	10.22642	-644.38422	-708.72906	8.02996	496.06235	733.24554	7.01411	505.98886	-14.07133	1308.21704	-961.74933	
18	0.170	-800.53870	8.90034	-638.82819	769.44598	10.17060	-644.36713	-708.68512	7.96843	496.10324	733.48578	6.96614	505.86887	-14.12323	1308.18530	-961.72577	
19	0.180	-800.60809	8.85581	-638.76563	769.41290	10.14382	-644.36792	-708.67493	7.96984	496.07440	733.43243	6.95072	505.84677	-14.17439	1308.19446	-961.72571	
20	0.190	-800.58673	8.81061	-638.83356	769.40094	10.15410	-644.40985	-708.69177	7.93353	496.06238	733.43237	6.91837	505.88419	-14.07589	1308.13574	-961.80939	
21	0.200	-800.60669	8.84780	-638.77008	769.42139	10.14042	-644.36542	-708.74469	8.03185	496.04355	733.46899	6.97108	505.85327	-14.07259	1308.15039	-961.79791	
22	0.210	-800.61023	8.80780	-638.82684	769.31567	10.20428	-644.39337	-708.70715	7.99254	496.06747	733.50281	6.97081	505.85892	-14.07053	1308.12793	-961.79053	
23	0.220	-800.57281	8.92649	-638.77631	769.33075	10.20472	-644.39331	-708.69476	8.02223	496.11240	733.20557	7.00256	506.01639	-14.08721	1308.22070	-961.76605	
24	0.230	-800.58087	8.82893	-638.81348	769.39130	10.19073	-644.35645	-708.70032	8.01995	496.08755	733.49896	7.00240	505.87662	-14.07960	1308.23230	-961.78656	
25	0.240	-800.60150	8.84137	-638.76569	769.42157	10.15727	-644.37415	-708.71112	7.96714	496.10449	733.17419	7.01746	506.02307	-14.10083	1308.20520	-961.75073	
26	0.250	-800.61566	8.85648	-638.79950	769.45367	10.15023	-644.33820	-708.69049	7.95965	496.12411	733.48840	6.96498	505.87784	-14.08908	1308.17749	-961.76373	
27	0.260	-800.59735	8.85294	-638.77362	769.32654	10.21769	-644.40991	-708.71155	8.01863	496.13177	733.51508	6.98064	505.86279	-14.09630	1308.15161	-961.72113	
28	0.270	-800.52838	8.86219	-638.86053	769.44232	10.16586	-644.35907	-708.70099	7.97537	496.09079	733.50909	6.95574	505.88831	-14.08540	1308.21375	-961.76306	
29	0.280	-800.59351	8.86529	-638.77777	769.40265	10.15470	-644.38562	-708.71307	8.02951	496.09506	733.50757	6.96602	505.87848	-14.09252	1308.22351	-961.79645	
30	0.290	-800.58240	8.79674	-638.83588	769.30603	10.19687	-644.40729	-708.69897	8.02725	496.11111	733.41650	6.94148	505.88663	-14.13950	1308.19922	-961.77173	
31	0.300	-800.57556	8.81884	-638.82269	769.34222	10.18753	-644.36487	-708.73883	8.05359	496.09747	733.42932	6.95206	505.88077	-14.11463	1308.18860	-961.72144	
32	0.310	-800.55670	8.88092	-638.84552	769.43518	10.16886	-644.36041	-708.69653	8.01899	496.11575	733.45209	6.95600	505.86353	-14.15419	1308.19934	-961.75818	
33	0.320	-800.55469	8.88661	-638.80176	769.36554	10.16022	-644.42163	-708.70892	7.99629	496.11050	733.15851	7.00595	506.01508	-14.13165	1308.26782	-961.74097	
34	0.330	-800.52521	8.85808	-638.88287	769.43262	10.16406	-644.40613	-708.65753	7.97190	496.11707	733.52484	6.97270	505.87350	-14.13022	1308.23938	-961.77576	
35	0.340	-800.56921	8.87031	-638.81830	769.36432	10.14688	-644.43536	-708.69360	7.98680	496.12552	733.21112	7.01817	505.98907	-14.16219	1308.20154	-961.74390	
36	0.350	-800.61169	8.84103	-638.77399	769.39410	10.14585	-644.39783	-708.69464	8.01853	496.10904	733.40619	6.93372	505.89023	-14.13465	1308.18164	-961.73163	
37	0.360	-800.58710	8.78761	-638.81250	769.31671	10.16944	-644.41797	-708.70947	7.97710	496.10303	733.16016	7.00751	506.01434	-14.09993	1308.18958	-961.71655	
38	0.370	-800.57648	8.86510	-638.78967	769.38904	10.15031	-644.41199	-708.69482	7.98765	496.11853	733.45447	6.97017	505.88364	-14.15403	1308.23230	-961.75983	
39	0.380	-800.50403	8.86193	-638.85999	769.40686	10.14774	-644.38654	-708.73340	8.03186	496.11203	733.14294	7.02136	506.01050	-14.13454	1308.22937	-961.73138	
40	0.390	-800.53589	8.90074	-638.80353	769.43701	10.14248	-644.37598	-708.71820	7.96283	496.10730	733.45685	6.97093	505.89813	-14.10945	1308.22693	-961.77185	
41	0.400	-800.58252	8.86074	-638.78571	769.34894	10.21624	-644.36426	-708.66901	7.98528	496.12515	733.42773	6.93262	505.87628	-14.19114	1308.18640	-961.72162	
42	0.410	-800.59875	8.85505	-638.76746	769.39203	10.15723	-644.37396	-708.66174	7.92384	496.14438	733.46649	6.94051	505.88538	-14.15413	1308.17859	-961.78625	
43	0.420	-800.58063	8.86019	-638.80432	769.38635	10.17177	-644.39178	-708.73279	7.99407	496.06970	733.48767	6.98041	505.89554	-14.10933	1308.16846	-961.74683	
44	0.430	-800.54272	8.85107	-638.79962	769.40790	10.16226	-644.37103	-708.70831	8.04178	496.08951	733.48010	6.96718	505.86154	-14.14742	1308.17590	-961.68579	
45	0.440	-800.52380	8.80625	-638.83295	769.38947	10.18065	-644.41699	-708.73834	8.02843	496.06882	733.45868	6.98112	505.87180	-14.15102	1308.21448	-961.72217	
46	0.450	-800.58673	8.87843	-638.78485	769.41040	10.15375	-644.38245	-708.71771	8.02737	496.06049	733.45575	6.94288	505.88571	-14.13301	1308.23999	-961.76318	
47	0.460	-800.58881	8.88635	-638.75134	769.36102	10.17200	-644.41882	-708.73047	7.99757	496.08383	733.40680	6.97002	505.88559	-14.15036	1308.21655	-961.73920	
48	0.470	-800.55695	8.80972	-638.81555	769.42578	10.14183	-644.35876	-708.72815	8.00390	496.08218	733.44586	6.95145	505.88947	-14.13583	1308.23413	-961.71698	
49	0.480	-800.54926	8.85235	-638.86230	769.41614	10.15250	-644.37708	-708.69659	8.05040	496.08435	733.49530	6.98729	505.88004	-14.11559	1308.21838	-961.71594	
50	0.490	-800.53284	8.84626	-638.84094	769.33765	10.19422	-644.41064	-708.72931	8.05287	496.04974	733.48395	6.95376	505.87201	-14.10461	1308.22168	-961.75854	
